<svg width="50" height="50" viewBox="0 0 50 50" fill="none" xmlns="http://www.w3.org/2000/svg">
<path d="M8.33333 27.0832H41.6667C42.2192 27.0832 42.7491 26.8637 43.1398 26.473C43.5305 26.0823 43.75 25.5524 43.75 24.9998C43.75 24.4473 43.5305 23.9174 43.1398 23.5267C42.7491 23.136 42.2192 22.9165 41.6667 22.9165H8.33333C7.7808 22.9165 7.25089 23.136 6.86019 23.5267C6.46949 23.9174 6.25 24.4473 6.25 24.9998C6.25 25.5524 6.46949 26.0823 6.86019 26.473C7.25089 26.8637 7.7808 27.0832 8.33333 27.0832Z" fill="#2E3951"/>
<path d="M41.6667 10.4165H8.33333C7.7808 10.4165 7.25089 10.636 6.86019 11.0267C6.46949 11.4174 6.25 11.9473 6.25 12.4998C6.25 13.0524 6.46949 13.5823 6.86019 13.973C7.25089 14.3637 7.7808 14.5832 8.33333 14.5832H41.6667C42.2192 14.5832 42.7491 14.3637 43.1398 13.973C43.5305 13.5823 43.75 13.0524 43.75 12.4998C43.75 11.9473 43.5305 11.4174 43.1398 11.0267C42.7491 10.636 42.2192 10.4165 41.6667 10.4165Z" fill="#2E3951"/>
<path d="M8.33333 39.5832H41.6667C42.2192 39.5832 42.7491 39.3637 43.1398 38.973C43.5305 38.5823 43.75 38.0524 43.75 37.4998C43.75 36.9473 43.5305 36.4174 43.1398 36.0267C42.7491 35.636 42.2192 35.4165 41.6667 35.4165H8.33333C7.7808 35.4165 7.25089 35.636 6.86019 36.0267C6.46949 36.4174 6.25 36.9473 6.25 37.4998C6.25 38.0524 6.46949 38.5823 6.86019 38.973C7.25089 39.3637 7.7808 39.5832 8.33333 39.5832Z" fill="#2E3951"/>
</svg>
