<svg width="180" height="51" viewBox="0 0 180 51" fill="none" xmlns="http://www.w3.org/2000/svg">
<path d="M72.8218 28.099L70.3209 21.7023H62.257L59.7788 28.099H57.4141L65.3703 7.89941H67.3324L75.2433 28.099H72.8218ZM69.5894 19.5984L67.253 13.3661C66.9468 12.5779 66.6406 11.6138 66.3173 10.4626C66.1132 11.3416 65.824 12.3113 65.4497 13.3661L63.0849 19.5984H69.5894Z" fill="black"/>
<path d="M92.771 28.099L90.2645 21.7023H82.2062L79.728 28.099H77.3633L85.3138 7.89941H87.2816L95.1925 28.099H92.771ZM89.5386 19.5984L87.2022 13.3661C86.9017 12.5779 86.5898 11.6138 86.2665 10.4626C86.0624 11.3416 85.7732 12.3113 85.3989 13.3661L83.0341 19.5984H89.5386Z" fill="black"/>
<path d="M114.302 17.8519C114.302 21.1694 113.4 23.7099 111.597 25.4679C109.794 27.2202 107.202 28.0992 103.817 28.0992H98.2422V7.98462H104.406C107.537 7.98462 109.964 8.85226 111.699 10.5875C113.434 12.3228 114.302 14.7443 114.302 17.8519ZM111.824 17.9313C111.824 15.3057 111.16 13.3322 109.85 12.0053C108.535 10.6783 106.578 10.0091 103.981 10.0091H100.584V26.0803H103.437C106.227 26.0803 108.319 25.3942 109.726 24.0218C111.132 22.6495 111.83 20.6193 111.83 17.9313" fill="black"/>
<path d="M120.926 19.7346V28.0992H118.59V7.98462H124.108C126.574 7.98462 128.4 8.4553 129.574 9.40233C130.754 10.3494 131.344 11.7671 131.344 13.6668C131.344 16.3265 129.994 18.1241 127.3 19.0598L132.761 28.0992H129.994L125.128 19.7346H120.932H120.926ZM120.926 17.7272H124.136C125.786 17.7272 127 17.3983 127.771 16.7461C128.542 16.0883 128.928 15.1072 128.928 13.7973C128.928 12.4873 128.537 11.5119 127.754 10.9221C126.966 10.338 125.712 10.0431 123.977 10.0431H120.938V17.7328L120.926 17.7272Z" fill="black"/>
<path d="M140.709 7.98462H138.367V28.0992H140.709V7.98462Z" fill="black"/>
<path d="M148.121 28.0992V7.98462H150.457V25.9839H159.332V28.0992H148.121Z" fill="black"/>
<path d="M177.107 28.099L174.606 21.7023H166.542L164.064 28.099H161.699L169.655 7.89941H171.618L179.528 28.099H177.107ZM173.875 19.5984L171.538 13.3661C171.232 12.5779 170.926 11.6138 170.602 10.4626C170.398 11.3416 170.109 12.3113 169.735 13.3661L167.37 19.5984H173.875Z" fill="black"/>
<path d="M60.8083 43.0474H59.572V36.5089H57.332V35.4485H63.0483V36.5089H60.8083V43.0474Z" fill="black"/>
<path d="M72.3415 43.0474H68.043V35.4485H72.3415V36.4976H69.2849V38.5675H72.1487V39.6052H69.2849V41.9927H72.3415V43.0474Z" fill="black"/>
<path d="M81.0442 36.4013C80.3296 36.4013 79.7682 36.6565 79.3599 37.1612C78.9516 37.6659 78.7475 38.3634 78.7475 39.2594C78.7475 40.1554 78.9403 40.8983 79.3372 41.3747C79.7285 41.851 80.2956 42.0892 81.0442 42.0892C81.3617 42.0892 81.6793 42.0608 81.9799 41.9928C82.2804 41.9304 82.5923 41.8454 82.9212 41.749V42.8094C82.3258 43.0362 81.6509 43.1497 80.8967 43.1497C79.7852 43.1497 78.9346 42.8094 78.3335 42.1402C77.7381 41.4654 77.4375 40.5014 77.4375 39.2481C77.4375 38.4542 77.5793 37.768 77.8742 37.1726C78.1634 36.5828 78.5773 36.1291 79.1274 35.8116C79.6775 35.494 80.3183 35.3352 81.0555 35.3352C81.8324 35.3352 82.5469 35.494 83.2048 35.8229L82.7568 36.8607C82.4959 36.7359 82.2237 36.6338 81.9402 36.5431C81.651 36.4524 81.3561 36.407 81.0385 36.407" fill="black"/>
<path d="M94.3808 43.0474H93.1332V39.6222H89.6286V43.0474H88.3867V35.4485H89.6286V38.5561H93.1332V35.4485H94.3808V43.0474Z" fill="black"/>
<path d="M106.545 43.0474H105.02L101.283 36.991H101.243L101.266 37.3312C101.317 37.972 101.339 38.5618 101.339 39.0949V43.0474H100.211V35.4485H101.719L105.445 41.4709H105.479C105.473 41.3916 105.456 41.1023 105.434 40.5976C105.417 40.0986 105.405 39.7073 105.405 39.4294V35.4485H106.545V43.0474Z" fill="black"/>
<path d="M119.123 39.2368C119.123 40.4731 118.811 41.4371 118.193 42.1233C117.58 42.8095 116.701 43.1554 115.567 43.1554C114.433 43.1554 113.542 42.8151 112.924 42.1346C112.306 41.4541 112 40.4844 112 39.2311C112 37.9779 112.306 37.0138 112.93 36.339C113.548 35.6642 114.433 35.3296 115.578 35.3296C116.724 35.3296 117.58 35.6698 118.198 36.356C118.816 37.0422 119.128 38.0006 119.128 39.2425M113.316 39.2368C113.316 40.1725 113.503 40.8814 113.883 41.3634C114.257 41.8454 114.818 42.0893 115.561 42.0893C116.304 42.0893 116.86 41.8511 117.234 41.3747C117.608 40.8984 117.801 40.1839 117.801 39.2368C117.801 38.2898 117.614 37.5979 117.24 37.1159C116.871 36.6339 116.316 36.3957 115.573 36.3957C114.83 36.3957 114.268 36.6339 113.888 37.1159C113.508 37.5979 113.316 38.3068 113.316 39.2368Z" fill="black"/>
<path d="M124.578 43.0474V35.4485H125.814V41.9813H129.035V43.0474H124.578Z" fill="black"/>
<path d="M140.927 39.2368C140.927 40.4731 140.621 41.4371 139.997 42.1233C139.379 42.8095 138.5 43.1554 137.372 43.1554C136.243 43.1554 135.341 42.8151 134.729 42.1346C134.117 41.4541 133.805 40.4844 133.805 39.2311C133.805 37.9779 134.117 37.0138 134.735 36.339C135.347 35.6642 136.237 35.3296 137.383 35.3296C138.529 35.3296 139.385 35.6698 140.003 36.356C140.621 37.0422 140.933 38.0006 140.933 39.2425M135.126 39.2368C135.126 40.1725 135.313 40.8814 135.693 41.3634C136.073 41.8454 136.634 42.0893 137.372 42.0893C138.109 42.0893 138.67 41.8511 139.045 41.3747C139.419 40.8984 139.606 40.1839 139.606 39.2368C139.606 38.2898 139.419 37.5979 139.05 37.1159C138.676 36.6339 138.12 36.3957 137.383 36.3957C136.646 36.3957 136.079 36.6339 135.699 37.1159C135.319 37.5979 135.126 38.3068 135.126 39.2368Z" fill="black"/>
<path d="M149.49 38.9247H152.285V42.7412C151.826 42.8944 151.384 42.9964 150.964 43.0588C150.544 43.1212 150.091 43.1552 149.603 43.1552C148.452 43.1552 147.562 42.815 146.944 42.1345C146.32 41.454 146.008 40.4899 146.008 39.2537C146.008 38.0174 146.354 37.0704 147.063 36.3842C147.766 35.6924 148.736 35.3464 149.966 35.3464C150.76 35.3464 151.509 35.4995 152.223 35.8058L151.786 36.8435C151.174 36.56 150.556 36.4182 149.938 36.4182C149.127 36.4182 148.486 36.6734 148.015 37.1838C147.539 37.6942 147.306 38.3917 147.306 39.2763C147.306 40.2064 147.516 40.9152 147.942 41.3972C148.367 41.8793 148.979 42.1231 149.773 42.1231C150.176 42.1231 150.607 42.0721 151.061 41.9757V40.0136H149.49V38.9474V38.9247Z" fill="black"/>
<path d="M159.172 35.4485H157.93V43.0474H159.172V35.4485Z" fill="black"/>
<path d="M169.299 43.0474H165V35.4485H169.299V36.4976H166.242V38.5675H169.106V39.6052H166.242V41.9927H169.299V43.0474Z" fill="black"/>
<path d="M179.149 40.9833C179.149 41.6582 178.905 42.1912 178.417 42.5768C177.93 42.9625 177.255 43.1553 176.399 43.1553C175.542 43.1553 174.833 43.0192 174.289 42.7526V41.5788C174.635 41.7432 175.004 41.868 175.395 41.9644C175.786 42.0551 176.143 42.1062 176.484 42.1062C176.977 42.1062 177.34 42.0098 177.572 41.8226C177.811 41.6355 177.924 41.3803 177.924 41.0684C177.924 40.7848 177.816 40.5467 177.607 40.3482C177.391 40.1497 176.943 39.9172 176.274 39.645C175.582 39.3615 175.094 39.0439 174.811 38.6866C174.522 38.3237 174.385 37.8927 174.385 37.388C174.385 36.7529 174.612 36.2538 175.06 35.8909C175.514 35.528 176.121 35.3408 176.875 35.3408C177.629 35.3408 178.332 35.4996 179.053 35.8172L178.656 36.8323C177.981 36.5487 177.374 36.4069 176.847 36.4069C176.444 36.4069 176.138 36.4977 175.928 36.6735C175.724 36.8493 175.616 37.0818 175.616 37.3653C175.616 37.5638 175.656 37.7339 175.741 37.87C175.82 38.0118 175.962 38.1479 176.149 38.267C176.336 38.3917 176.682 38.5562 177.181 38.766C177.737 38.9985 178.145 39.214 178.406 39.4182C178.667 39.6167 178.86 39.8435 178.979 40.0987C179.104 40.3539 179.16 40.6487 179.16 40.9947" fill="black"/>
<g opacity="0.58">
<mask id="mask0_0_1159" style="mask-type:luminance" maskUnits="userSpaceOnUse" x="0" y="4" width="46" height="46">
<path d="M45.8943 4.10571H0V50H45.8943V4.10571Z" fill="white"/>
</mask>
<g mask="url(#mask0_0_1159)">
<mask id="mask1_0_1159" style="mask-type:luminance" maskUnits="userSpaceOnUse" x="0" y="4" width="46" height="46">
<path d="M45.8943 4.10571H0V50H45.8943V4.10571Z" fill="white"/>
</mask>
<g mask="url(#mask1_0_1159)">
<path d="M45.8138 25.1729C46.8516 37.8019 37.455 48.8828 24.826 49.9205C12.197 50.9583 1.11609 41.5617 0.0783189 28.9327C-0.959449 16.3036 8.43717 5.22278 21.0662 4.18501C33.6952 3.14724 44.7761 12.5439 45.8138 25.1729Z" fill="#B7C5E5"/>
</g>
</g>
</g>
<g opacity="0.31">
<mask id="mask2_0_1159" style="mask-type:luminance" maskUnits="userSpaceOnUse" x="35" y="6" width="18" height="18">
<path d="M52.3197 6.64624H35.2617V23.7042H52.3197V6.64624Z" fill="white"/>
</mask>
<g mask="url(#mask2_0_1159)">
<mask id="mask3_0_1159" style="mask-type:luminance" maskUnits="userSpaceOnUse" x="35" y="6" width="18" height="18">
<path d="M52.3197 6.64624H35.2617V23.7042H52.3197V6.64624Z" fill="white"/>
</mask>
<g mask="url(#mask3_0_1159)">
<path d="M52.2842 14.4777C52.6699 19.1732 49.1766 23.2902 44.4811 23.6758C39.7857 24.0615 35.6686 20.5682 35.283 15.8727C34.8974 11.1773 38.3906 7.06022 43.0861 6.6746C47.7816 6.28898 51.8986 9.78223 52.2842 14.4777Z" fill="#EE6727"/>
</g>
</g>
</g>
<g opacity="0.58">
<mask id="mask4_0_1159" style="mask-type:luminance" maskUnits="userSpaceOnUse" x="35" y="0" width="7" height="6">
<path d="M41.1753 0H35.7539V5.42135H41.1753V0Z" fill="white"/>
</mask>
<g mask="url(#mask4_0_1159)">
<mask id="mask5_0_1159" style="mask-type:luminance" maskUnits="userSpaceOnUse" x="35" y="0" width="7" height="6">
<path d="M41.1753 0H35.7539V5.42135H41.1753V0Z" fill="white"/>
</mask>
<g mask="url(#mask5_0_1159)">
<path d="M41.1641 2.48943C41.2888 3.98087 40.1773 5.29084 38.6859 5.4156C37.1945 5.53469 35.8845 4.42887 35.7654 2.93176C35.6407 1.44032 36.7521 0.130353 38.2436 0.0112648C39.735 -0.113494 41.045 0.997995 41.1641 2.48943Z" fill="#719AD0"/>
</g>
</g>
</g>
<path d="M24.6527 22.3943C24.3068 20.9596 23.4221 19.7404 22.1632 18.9691C20.8986 18.1979 19.4185 17.9597 17.9781 18.3056C16.5433 18.6516 15.3241 19.5305 14.5529 20.7951C13.7816 22.0597 13.5435 23.5455 13.8894 24.9802C14.2353 26.415 15.12 27.6342 16.3846 28.4111C17.3996 29.0349 18.5622 29.3071 19.7247 29.2107C20.0082 29.1824 20.2861 29.1427 20.5697 29.0746C22.0044 28.7287 23.2236 27.8497 23.9949 26.5851C24.7661 25.3205 25.0043 23.8347 24.6583 22.4M17.1218 27.1862C16.1861 26.6135 15.5283 25.7118 15.2731 24.6457C15.0179 23.5852 15.1937 22.4794 15.7721 21.5437C16.3449 20.608 17.2465 19.9502 18.3127 19.695C18.5225 19.644 18.7323 19.6099 18.9421 19.5929C19.8041 19.5192 20.6661 19.7234 21.4203 20.1884C22.356 20.7611 23.0138 21.6628 23.269 22.7289C23.5242 23.7894 23.3484 24.8952 22.7756 25.8309C22.2029 26.7666 21.2955 27.4244 20.2351 27.6796C19.169 27.9348 18.0688 27.759 17.1331 27.1862" fill="#403644"/>
<path d="M22.7775 2.10965C22.3635 2.2174 22.0233 2.47826 21.8078 2.84686C21.5923 3.21547 21.5299 3.64079 21.6377 4.05476C21.7454 4.46306 22.0119 4.80898 22.3749 5.02448C22.7435 5.23997 23.1745 5.30235 23.5828 5.1946C23.9967 5.08686 24.337 4.82032 24.5525 4.45739C24.768 4.08878 24.8304 3.6578 24.7226 3.2495C24.5015 2.39887 23.6281 1.88282 22.7775 2.10965Z" fill="white"/>
<path d="M46.8163 29.8855H46.7993C46.425 29.9138 46.1075 30.118 45.926 30.4356C45.7389 30.7588 45.7218 31.1387 45.8863 31.4847C46.0734 31.876 46.5101 32.1312 46.9467 32.1028C47.3437 32.0858 47.6499 31.876 47.8427 31.5527C48.0299 31.2295 48.0469 30.8495 47.8824 30.5036C47.6953 30.1067 47.2586 29.8571 46.822 29.8855" fill="white"/>
<path d="M50.6296 13.9446C50.4254 13.111 49.9151 12.4021 49.1835 11.9541C48.452 11.5061 47.59 11.37 46.7507 11.5685C45.0268 11.9825 43.9607 13.7178 44.3746 15.4417C44.5051 15.9748 44.7603 16.4568 45.1232 16.8537L38.1707 27.3108C37.4165 27.0556 36.5829 26.9989 35.7549 27.2031C34.6151 27.4753 33.6397 28.1841 33.0272 29.1879C33.0045 29.2219 32.9875 29.2616 32.9705 29.2956L20.1657 22.9953L23.279 5.85794C23.3074 5.85794 23.3357 5.85794 23.3698 5.85794C23.4945 5.8466 23.6249 5.82959 23.7497 5.79556C24.3225 5.64812 24.7988 5.28518 25.0994 4.77481C25.3999 4.26443 25.4793 3.66899 25.3319 3.1019C25.0256 1.92803 23.8177 1.21917 22.6382 1.5254C22.0711 1.67284 21.5891 2.03578 21.2942 2.54616C20.9937 3.05086 20.9143 3.6463 21.0617 4.21906C21.2092 4.79182 21.5721 5.26817 22.0825 5.56306C22.2072 5.64245 22.3433 5.69349 22.4794 5.74452L19.2811 23.3526L18.6516 22.9046L7.11139 39.2593C6.47625 39.0552 5.79575 39.0211 5.12659 39.1799C4.16821 39.4068 3.36295 39.9965 2.84123 40.8358C2.32518 41.6751 2.17207 42.6675 2.3989 43.6202C2.62573 44.5786 3.2155 45.3895 4.05479 45.9056C4.72962 46.3195 5.50086 46.501 6.27777 46.4386C6.46491 46.4216 6.65205 46.3933 6.83919 46.3479C7.79756 46.1211 8.6085 45.5256 9.12454 44.6863C9.64059 43.8471 9.79371 42.8547 9.56687 41.9019C9.39675 41.1988 9.03381 40.575 8.51776 40.0873L19.2867 24.8213L25.0767 38.4314C24.64 38.8283 24.4245 39.4408 24.5833 40.0532C24.7875 40.8245 25.519 41.3292 26.2902 41.2611C26.381 41.2555 26.4774 41.2385 26.5681 41.2158C26.9878 41.108 27.3394 40.8415 27.5605 40.4615C27.7817 40.0873 27.8441 39.6506 27.7306 39.2253C27.6229 38.8057 27.3564 38.4541 26.9821 38.2386C26.6248 38.0287 26.2109 37.9664 25.8082 38.0571L20.058 24.5434L32.4658 30.6453C32.3411 31.2634 32.3467 31.8985 32.4998 32.528C32.772 33.6735 33.4809 34.6432 34.4846 35.2614C35.2899 35.7604 36.2143 35.9759 37.1443 35.9022C37.3711 35.8795 37.5979 35.8455 37.8191 35.7944C39.7075 35.3408 41.0232 33.7246 41.1876 31.8872L45.2536 31.5356C45.2763 31.615 45.3047 31.6887 45.3387 31.7624C45.6336 32.3862 46.3027 32.7775 46.9946 32.7265H47.0229C47.59 32.6811 48.0947 32.3636 48.3783 31.8759C48.6675 31.3825 48.6902 30.7757 48.4463 30.254C48.1458 29.6245 47.4823 29.2389 46.7904 29.2843C46.2063 29.324 45.6959 29.6415 45.4067 30.1349C45.299 30.3164 45.2309 30.5092 45.1969 30.7133L41.1819 31.0593C41.1593 30.8664 41.1309 30.668 41.0855 30.4695C40.836 29.4374 40.2462 28.5811 39.458 27.9856L46.3084 17.6817C46.7734 17.8688 47.2724 17.9482 47.7715 17.9085C47.9359 17.8972 48.1004 17.8688 48.2648 17.8291C49.9888 17.4152 51.0549 15.6799 50.6466 13.9559M21.6401 4.05461C21.5324 3.6463 21.5948 3.21532 21.8103 2.84671C22.0258 2.47811 22.366 2.21725 22.78 2.1095C23.6306 1.88267 24.5039 2.39871 24.7251 3.24934C24.8328 3.66332 24.7761 4.0943 24.555 4.45724C24.3395 4.82584 23.9992 5.0867 23.5852 5.19445C23.1769 5.3022 22.746 5.24549 22.3773 5.02999C22.0087 4.8145 21.7479 4.46858 21.6401 4.05461ZM7.89397 43.9378C7.5764 44.4538 7.08303 44.8111 6.49893 44.9529C5.91484 45.089 5.30805 44.9926 4.79768 44.6807C4.2873 44.3688 3.92436 43.8697 3.78259 43.2856C3.64649 42.7015 3.74289 42.0948 4.05479 41.5844C4.37236 41.0683 4.86573 40.7111 5.44982 40.5693C5.56324 40.5409 5.68233 40.5239 5.79575 40.5126C6.2721 40.4729 6.74278 40.5863 7.15108 40.8415C7.66713 41.1591 8.0244 41.6524 8.16617 42.2365C8.30794 42.8206 8.21153 43.4274 7.89397 43.9378ZM45.9228 30.4355C46.1099 30.1179 46.4275 29.9194 46.7961 29.8911C46.8018 29.8911 46.8074 29.8911 46.8188 29.8911C47.2554 29.8627 47.6921 30.1179 47.8792 30.5149C48.0437 30.8551 48.0267 31.2351 47.8395 31.5583C47.6524 31.8815 47.3405 32.0914 46.9435 32.1084C46.5069 32.1367 46.0702 31.8815 45.8831 31.4902C45.7186 31.1443 45.7356 30.7644 45.9228 30.4411M36.0838 28.5981C36.2369 28.5584 36.3901 28.5357 36.5375 28.5244C36.8097 28.5017 37.0762 28.5244 37.3371 28.5697L35.891 30.7417L34.2465 29.9364C34.6661 29.2616 35.3183 28.7852 36.0838 28.6038M39.6792 30.7984C39.7075 30.9288 39.7302 31.0536 39.7415 31.1783L37.5299 31.3712L37.6036 32.1878L39.7189 32.0063C39.5204 33.1405 38.6697 34.1102 37.4789 34.3937C36.7076 34.5809 35.908 34.4504 35.2275 34.0365C34.547 33.6168 34.0707 32.9647 33.8835 32.1934C33.8155 31.9042 33.7871 31.6037 33.8098 31.3144L36.3901 32.5847L38.6471 29.1879C39.1461 29.5848 39.5204 30.1462 39.6792 30.8097M47.9189 16.4284C47.4539 16.5362 46.9776 16.4625 46.5693 16.2129C46.161 15.9634 45.8774 15.5721 45.764 15.1071C45.5315 14.1487 46.1269 13.1847 47.0853 12.9579C47.5446 12.8501 48.0267 12.9238 48.435 13.1734C48.8376 13.4229 49.1268 13.8142 49.2346 14.2792C49.4614 15.2375 48.8716 16.2016 47.9132 16.4284" fill="#403644"/>
<path d="M7.15223 21.538C7.50382 21.7421 7.89511 21.8272 8.29207 21.7988C8.40549 21.7875 8.51891 21.7705 8.62666 21.7421C9.12569 21.6117 9.52265 21.2998 9.77217 20.8972L13.997 22.3716L14.2635 21.6003L10.0557 20.1316C10.0897 19.8877 10.0784 19.6269 10.0103 19.3717C9.73814 18.3339 8.67769 17.7158 7.63993 17.9823C7.14089 18.1128 6.72125 18.436 6.45471 18.884C6.19385 19.332 6.12013 19.8537 6.25056 20.3584C6.38099 20.8575 6.70423 21.2771 7.14656 21.5436M6.98778 19.1902C7.16924 18.884 7.45279 18.6628 7.79871 18.5778C7.8781 18.5551 7.95182 18.5437 8.02554 18.5381C8.65501 18.487 9.25612 18.8897 9.42058 19.5248C9.60771 20.2337 9.1824 20.9595 8.47354 21.1467C8.12762 21.2374 7.77035 21.1864 7.46413 21.0049C7.1579 20.8234 6.93674 20.5399 6.846 20.194C6.76094 19.848 6.80631 19.4965 6.98778 19.1846" fill="#403644"/>
<path d="M21.4142 20.1883C20.6599 19.7233 19.798 19.5248 18.9417 19.5929C18.7318 19.6099 18.522 19.6439 18.3122 19.6949C17.2461 19.9501 16.3444 20.608 15.7716 21.5436C15.1989 22.4793 15.0231 23.5852 15.2783 24.6456C15.5335 25.7117 16.1856 26.6134 17.127 27.1862C18.0627 27.7589 19.1685 27.9347 20.2289 27.6795C21.2951 27.4243 22.1967 26.7665 22.7695 25.8308C23.3423 24.8951 23.5181 23.7893 23.2629 22.7289C23.0077 21.6627 22.3499 20.7611 21.4142 20.1883Z" fill="white"/>
<path d="M20.0807 26.5396C21.6402 26.1313 22.5758 24.5321 22.1675 22.9726C21.7592 21.4132 20.1601 20.4775 18.6006 20.8858C17.0411 21.2941 16.1054 22.8932 16.5137 24.4527C16.922 26.0122 18.5212 26.9479 20.0807 26.5396Z" fill="#CD6028"/>
<path d="M36.5375 28.5245C36.3843 28.5358 36.2369 28.5585 36.0838 28.5982C35.3126 28.7853 34.6547 29.2617 34.2408 29.9422C33.8211 30.6227 33.6964 31.4223 33.8778 32.1935C34.065 32.9648 34.5413 33.6226 35.2218 34.0366C35.9023 34.4505 36.7019 34.581 37.4732 34.3938C39.0723 34.0082 40.0591 32.3977 39.6791 30.7985C39.3332 29.3524 37.9779 28.4054 36.5375 28.5245Z" fill="white"/>
<path d="M36.2634 29.4829C35.1973 29.7608 34.5565 30.8552 34.8344 31.9213C35.1123 32.9875 36.2067 33.6226 37.2729 33.3504C38.339 33.0725 38.9798 31.9781 38.7019 30.9119C38.424 29.8458 37.3296 29.2107 36.2634 29.4829Z" fill="#3E6EB4"/>
<path d="M26.0867 38.596C26.0867 38.596 26.0753 38.596 26.0696 38.596C25.7124 38.6243 25.4062 38.8171 25.2304 39.1234C25.0489 39.4353 25.0319 39.8039 25.1907 40.1328C25.3721 40.5071 25.7918 40.7566 26.2114 40.7282C26.5914 40.7112 26.8919 40.5127 27.0677 40.2008C27.2492 39.8889 27.2605 39.5203 27.1074 39.1914C26.9259 38.8115 26.512 38.5676 26.0923 38.596" fill="white"/>
<path d="M48.5089 13.0486C48.0665 12.7821 47.5505 12.697 47.0515 12.8161C46.0137 13.0656 45.3786 14.1091 45.6224 15.1412C45.7415 15.6459 46.0534 16.0655 46.49 16.3377C46.9324 16.6042 47.4484 16.6893 47.9475 16.5702C48.9852 16.3207 49.6204 15.2773 49.3765 14.2395C49.2574 13.7405 48.9512 13.3151 48.5089 13.0429" fill="white"/>
<path d="M47.2881 13.8143C46.7891 13.9447 46.4942 14.4551 46.6246 14.9541C46.755 15.4532 47.2654 15.7481 47.7644 15.6176C48.2578 15.4872 48.5584 14.9768 48.4279 14.4778C48.2975 13.9788 47.7871 13.6839 47.2881 13.8143Z" fill="#CD6028"/>
</svg>
